HIERARCHY
ROOT Hips
{
	OFFSET 0.000000 0.000000 0.000000 
	CHANNELS 6 Xposition Yposition Zposition Zrotation Yrotation Xrotation
	JOINT LeftUpLeg
	{
		OFFSET 1.363060 -1.794630 0.839290 
		CHANNELS 3 Zrotation Yrotation Xrotation
		JOINT LeftLeg
		{
			OFFSET 2.448110 -6.726130 0.000000 
			CHANNELS 3 Zrotation Yrotation Xrotation
			JOINT LeftFoot
			{
				OFFSET 2.562200 -7.039590 0.000000 
				CHANNELS 3 Zrotation Yrotation Xrotation
				JOINT LeftToeBase
				{
					OFFSET 0.157640 -0.433110 2.322550 
					CHANNELS 3 Zrotation Yrotation Xrotation
					End Site
					{
						OFFSET 0.000000 0.000000 0.000000 
					}
				}
			}
		}
	}
	JOINT RightUpLeg
	{
		OFFSET -1.305520 -1.794630 0.839290 
		CHANNELS 3 Zrotation Yrotation Xrotation
		JOINT RightLeg
		{
			OFFSET -2.542530 -6.985550 0.000000 
			CHANNELS 3 Zrotation Yrotation Xrotation
			JOINT RightFoot
			{
				OFFSET -2.568260 -7.056230 0.000000 
				CHANNELS 3 Zrotation Yrotation Xrotation
				JOINT RightToeBase
				{
					OFFSET -0.164730 -0.452590 2.363150 
					CHANNELS 3 Zrotation Yrotation Xrotation
					End Site
					{
						OFFSET 0.000000 0.000000 0.000000 
					}
				}
			}
		}
	}
	JOINT Spine
	{
		OFFSET 0.028270 2.035590 -0.193380 
		CHANNELS 3 Zrotation Yrotation Xrotation
		JOINT Spine1
		{
			OFFSET 0.056720 2.048850 -0.042750 
			CHANNELS 3 Zrotation Yrotation Xrotation
			JOINT Neck1
			{
				OFFSET -0.054170 1.746240 0.172020 
				CHANNELS 3 Zrotation Yrotation Xrotation
				JOINT Head
				{
					OFFSET 0.104070 1.761360 -0.123970 
					CHANNELS 3 Zrotation Yrotation Xrotation
					End Site
					{
						OFFSET 0.000000 0.000000 0.000000 
					}
				}
			}
			JOINT LeftArm
			{
				OFFSET 3.362410 1.200890 -0.311210 
				CHANNELS 3 Zrotation Yrotation Xrotation
				JOINT LeftForeArm
				{
					OFFSET 4.983000 -0.000000 -0.000000 
					CHANNELS 3 Zrotation Yrotation Xrotation
					JOINT LeftHand
					{
						OFFSET 3.483560 -0.000000 -0.000000 
						CHANNELS 3 Zrotation Yrotation Xrotation
						JOINT LeftHandIndex1
						{
							OFFSET 0.715260 -0.000000 -0.000000 
							CHANNELS 3 Zrotation Yrotation Xrotation
							End Site
							{
								OFFSET 0.000000 0.000000 0.000000 
							}
						}
					}
				}
			}
			JOINT RightArm
			{
				OFFSET -3.136600 1.374050 -0.404650 
				CHANNELS 3 Zrotation Yrotation Xrotation
				JOINT RightForeArm
				{
					OFFSET -5.241900 -0.000000 -0.000000 
					CHANNELS 3 Zrotation Yrotation Xrotation
					JOINT RightHand
					{
						OFFSET -3.444170 -0.000000 -0.000000 
						CHANNELS 3 Zrotation Yrotation Xrotation
						JOINT RightHandIndex1
						{
							OFFSET -0.622530 -0.000000 -0.000000 
							CHANNELS 3 Zrotation Yrotation Xrotation
							End Site
							{
								OFFSET 0.000000 0.000000 0.000000 
							}
						}
					}
				}
			}
		}
	}
}
MOTION
Frames: 18
Frame Time: 0.041667
-4.391662 16.244103 -1.358075 39.992028 -81.696146 7.005558 -20.538141 -24.446787 -66.373784 7.837232 19.177213 55.797977 -3.535730 17.457412 -19.458084 0.189300 2.802300 7.728800 16.640124 8.120115 -89.751936 -0.522504 -7.151650 18.377716 -3.321649 -6.772772 35.003065 -0.004000 0.406900 -1.118000 7.230859 -6.345418 4.484432 5.833777 -2.841275 -1.910244 -1.357305 6.079739 -21.705312 -1.707100 1.561300 -4.558500 179.484317 -85.268025 131.770024 10.375792 -16.392470 -0.221131 1.277396 0.186732 0.884594 -7.125000 0.000000 0.000000 78.530339 37.913204 70.900714 -73.388684 55.475133 -43.193008 -0.104223 -0.375225 -30.407799 7.125000 0.000000 0.000000 
-4.326802 16.239675 -1.348335 40.753441 -81.581098 6.113020 -20.635475 -24.699635 -66.468390 7.868689 19.197387 55.890178 -3.511526 17.401962 -19.489914 0.191200 2.816400 7.767900 15.244801 8.041250 -89.430944 -0.516431 -7.095680 18.142541 -3.427662 -7.667765 35.761072 -0.004600 0.439000 -1.206200 7.218675 -6.439586 4.379583 5.850149 -2.876354 -2.099545 -1.277796 6.040658 -21.469485 -1.672600 1.555600 -4.491900 179.973622 -85.260230 131.032529 10.326059 -16.292974 -0.204553 1.274342 0.187564 1.222115 -7.125000 0.000000 0.000000 78.640427 37.729426 71.006338 -73.437389 55.494071 -43.238651 -0.107289 -0.377417 -30.370219 7.125000 0.000000 0.000000 
-4.258622 16.229935 -1.335164 41.061002 -81.675835 5.591553 -20.690178 -24.751627 -66.597825 7.911137 19.222963 56.002362 -3.519911 17.381033 -19.301431 0.220700 3.024300 8.346300 13.881675 8.179045 -89.037882 -0.510592 -7.043543 17.906961 -3.557179 -8.574588 36.595624 -0.002900 0.345700 -0.950000 7.277553 -6.397557 4.371825 5.976646 -2.851406 -2.160036 -1.419579 5.957833 -21.381693 -1.701900 1.541800 -4.491900 179.730254 -85.172621 130.837573 10.249784 -16.152935 -0.175227 1.275686 0.183542 1.632241 -7.125000 0.000000 0.000000 78.549662 37.678840 71.030898 -73.191343 55.465768 -43.006623 -0.113972 -0.385819 -30.438001 7.125000 0.000000 0.000000 
-4.193651 16.223405 -1.318672 41.327650 -81.811099 5.203409 -20.666435 -24.835820 -66.826060 7.950080 19.254082 56.095656 -3.557696 17.435328 -19.035502 0.274000 3.367200 9.302700 12.493871 8.388247 -88.734884 -0.502657 -6.987497 17.681966 -3.727263 -9.191022 37.488543 -0.005200 0.467900 -1.285600 7.277272 -6.423706 4.383435 5.993659 -2.867458 -2.108818 -1.583135 6.000307 -21.236570 -1.748900 1.584100 -4.451300 179.525362 -85.246708 130.526076 10.185058 -16.029665 -0.150583 1.277303 0.176043 2.133503 -7.125000 0.000000 0.000000 78.654144 37.643260 71.092855 -73.150282 55.470050 -42.954902 -0.124980 -0.390805 -30.405188 7.125000 0.000000 0.000000 
-4.130562 16.215104 -1.304283 41.195327 -81.898299 5.247350 -20.548167 -24.968574 -67.078553 7.991178 19.291733 56.198535 -3.579721 17.451879 -18.803092 0.306500 3.559100 9.839500 11.175560 8.575702 -88.433973 -0.481848 -6.898529 17.391236 -3.915553 -9.513515 38.351247 -0.008600 0.597500 -1.642000 7.259101 -6.466480 4.381615 5.960590 -2.894056 -2.009714 -1.693136 6.055693 -21.347823 -1.794600 1.613900 -4.501500 179.481926 -85.371556 130.315725 10.144285 -15.950926 -0.138059 1.278906 0.169544 2.489044 -7.125000 0.000000 0.000000 78.914360 37.436336 70.968894 -73.830702 55.557590 -43.561053 -0.135214 -0.385434 -30.158133 7.125000 0.000000 0.000000 
-4.068690 16.216653 -1.289120 40.851005 -82.002977 5.188671 -20.603344 -24.903584 -66.932312 8.026431 19.297064 56.275944 -3.623364 17.502252 -18.483691 0.348600 3.793700 10.496900 9.963309 8.714847 -87.762768 -0.457480 -6.809892 17.111789 -4.074989 -9.788101 39.082098 -0.008500 0.596200 -1.638400 7.248684 -6.440803 4.468746 5.998652 -2.890447 -1.989832 -1.951657 6.035727 -21.541821 -1.896400 1.608100 -4.584600 179.521342 -85.363703 130.028398 10.115157 -15.891846 -0.125581 1.277734 0.168875 2.753616 -7.125000 0.000000 0.000000 79.112580 37.113426 70.613934 -74.934886 55.680314 -44.551548 -0.149058 -0.377793 -29.822529 7.125000 0.000000 0.000000 
-4.004163 16.217982 -1.270636 40.532069 -82.254776 5.224736 -20.615253 -24.753240 -66.986845 8.073970 19.322016 56.398537 -3.685313 17.633450 -18.221286 0.383500 3.977000 11.012000 8.679096 9.022603 -87.294182 -0.450920 -6.773989 16.977327 -4.222722 -9.998869 39.713861 -0.018600 0.880700 -2.420700 7.265061 -6.380566 4.562827 6.052663 -2.873805 -1.876811 -2.334090 6.048256 -21.621763 -2.033700 1.629000 -4.617100 179.496116 -85.380852 129.720424 10.081514 -15.820545 -0.107462 1.274891 0.172113 2.879933 -7.125000 0.000000 0.000000 79.284461 36.996735 70.436904 -75.116260 55.714523 -44.677629 -0.178903 -0.389241 -29.731780 7.125000 0.000000 0.000000 
-3.944837 16.209459 -1.256026 40.912008 -82.472635 4.789421 -20.690778 -24.637956 -67.319848 8.131369 19.365197 56.573495 -3.666144 17.557332 -18.131715 0.380000 3.959000 10.961400 7.238640 9.320122 -87.171626 -0.475741 -6.810385 16.989936 -4.285150 -10.822102 40.135816 -0.017000 0.841100 -2.311700 7.230256 -6.358421 4.615633 6.017128 -2.874992 -1.739749 -2.656946 6.057934 -21.431679 -2.143400 1.648400 -4.526400 178.939265 -85.400778 130.007437 10.005489 -15.678694 -0.080989 1.278966 0.166338 3.095932 -7.125000 0.000000 0.000000 79.417141 37.290554 70.574304 -74.519774 55.663748 -44.120809 -0.190134 -0.403587 -30.074093 7.125000 0.000000 0.000000 
-3.890602 16.183781 -1.242965 41.453106 -82.667431 4.252370 -20.835051 -24.501217 -67.714165 8.209973 19.411934 56.794673 -3.547833 17.069463 -17.710139 0.451500 4.310900 11.952900 5.747134 9.602628 -87.189378 -0.512540 -6.877685 17.090121 -4.348176 -11.655914 40.558931 -0.014900 0.788300 -2.166400 7.255067 -6.325331 4.621800 6.058337 -2.861701 -1.629990 -2.723536 6.016014 -21.240865 -2.143500 1.643200 -4.453200 178.761494 -85.388086 129.714740 9.970011 -15.621102 -0.071930 1.281365 0.158728 3.531281 -7.125000 0.000000 0.000000 79.315370 37.739464 70.805331 -73.906159 55.587179 -43.565461 -0.188971 -0.414024 -30.255469 7.125000 0.000000 0.000000 
-3.834375 16.163083 -1.226252 42.296776 -82.914160 3.319886 -21.007807 -24.355004 -67.992604 8.282781 19.448863 56.989678 -3.484504 16.749210 -17.245219 0.537100 4.695700 13.042600 4.191844 9.905125 -87.157124 -0.547791 -6.954768 17.282148 -4.475555 -11.797634 41.054701 -0.035500 1.215800 -3.342700 7.218126 -6.333686 4.687944 6.052283 -2.870100 -1.516031 -2.569525 6.015448 -20.978815 -2.067300 1.645800 -4.341100 179.138321 -85.559176 129.297531 10.041440 -15.746527 -0.087163 1.269166 0.176665 3.546282 -7.125000 0.000000 0.000000 79.542264 37.722078 70.942803 -74.353738 55.648203 -43.961641 -0.200946 -0.411917 -30.242606 7.125000 0.000000 0.000000 
-3.777485 16.162198 -1.208875 44.288401 -83.237962 1.094697 -21.315780 -24.153991 -68.119825 8.325627 19.472252 57.135691 -3.597792 17.193272 -17.503315 0.418100 4.150400 11.500200 2.519233 10.231390 -86.925030 -0.586218 -7.046148 17.518536 -4.546903 -11.865263 41.313782 -0.069000 1.694600 -4.662400 7.111904 -6.364569 4.807229 6.170736 -2.896127 -1.391654 -2.651538 6.100943 -20.646460 -2.092500 1.695500 -4.198200 178.816346 -85.875787 129.729574 10.016696 -15.688031 -0.072916 1.256477 0.203381 3.425156 -7.125000 0.000000 0.000000 80.020661 37.146845 70.719054 -75.739302 55.816767 -45.213404 -0.206796 -0.385926 -29.552823 7.125000 0.000000 0.000000 
-3.726128 16.164190 -1.189505 45.527393 -83.629477 -0.403505 -21.550941 -23.807855 -68.218859 8.359394 19.490959 57.256381 -3.721195 17.662152 -17.752328 0.298200 3.511300 9.705800 0.981008 10.633565 -86.620865 -0.624570 -7.143140 17.750151 -4.553719 -12.090276 41.355430 -0.082200 1.849200 -5.089000 7.014924 -6.337027 4.891109 6.208951 -2.894107 -1.310072 -2.721965 6.165839 -20.632999 -2.128500 1.728300 -4.199800 177.903174 -86.135766 130.462188 9.845026 -15.377852 -0.028687 1.255130 0.215925 3.660331 -7.125000 0.000000 0.000000 80.380616 37.036580 70.769313 -76.002008 55.847727 -45.484208 -0.182146 -0.368062 -29.202883 7.125000 0.000000 0.000000 
-3.677760 16.149580 -1.171243 45.268455 -84.003984 -0.247710 -21.658161 -23.364364 -68.509062 8.426764 19.524540 57.442841 -3.657106 17.327839 -17.277553 0.351300 3.808300 10.538000 -0.402136 11.053018 -86.509553 -0.648823 -7.210624 17.948946 -4.619431 -11.754785 41.480561 -0.131100 2.333800 -6.429100 6.963275 -6.226753 4.842535 6.121768 -2.847994 -1.356951 -3.026291 6.129603 -20.764463 -2.262700 1.711900 -4.260800 177.705027 -86.165107 130.400925 9.697463 -15.099963 0.014339 1.251594 0.224525 4.007882 -7.125000 0.000000 0.000000 80.724103 37.337798 70.936773 -74.840190 55.743630 -44.478644 -0.141022 -0.365734 -29.302440 7.125000 0.000000 0.000000 
-3.627178 16.138954 -1.155083 44.758495 -84.186888 -0.014170 -21.912237 -22.938297 -68.545925 8.508019 19.545917 57.666646 -3.560841 16.874842 -16.749799 0.417100 4.145400 11.486000 -1.713395 11.278490 -86.195924 -0.667728 -7.268553 18.181539 -4.717926 -10.903196 41.645447 -0.305100 3.551300 -9.817500 6.929933 -6.213461 4.905252 6.132017 -2.860411 -1.329387 -3.879812 6.228331 -20.895410 -2.595900 1.771000 -4.274800 177.144565 -86.195612 130.741876 9.638056 -14.972814 0.045901 1.243861 0.237793 4.135517 -7.125000 0.000000 0.000000 80.984096 37.370403 70.847459 -74.873114 55.756453 -44.512472 -0.135330 -0.363001 -29.340415 7.125000 0.000000 0.000000 
-3.572611 16.132535 -1.138038 44.063217 -84.504471 0.458001 -22.031794 -22.462363 -68.798484 8.590139 19.598105 57.952479 -3.570548 16.989871 -17.072793 0.317000 3.619300 10.007900 -3.017977 11.638746 -85.971471 -0.710196 -7.387130 18.514287 -4.650915 -10.687819 41.298491 -0.434900 4.232000 -11.730400 6.992998 -6.156614 4.925127 6.160519 -2.819368 -1.415518 -3.172458 6.148637 -20.654861 -2.331500 1.725700 -4.234400 177.103481 -86.245125 129.921409 9.543001 -14.797326 0.079815 1.242272 0.231775 4.771642 -7.125000 0.000000 0.000000 81.135219 37.063544 70.808905 -75.631915 55.844303 -45.170332 -0.166789 -0.367522 -29.261597 7.125000 0.000000 0.000000 
-3.526457 16.121688 -1.120107 43.716331 -84.823789 0.579806 -22.230717 -21.959952 -69.057998 8.680303 19.650863 58.274259 -3.526901 16.956699 -17.484598 0.252900 3.235600 8.935400 -4.375157 11.998145 -85.753151 -0.768340 -7.549128 18.976354 -4.518876 -10.376372 40.668014 -0.543700 4.724300 -13.123700 7.035779 -6.129673 4.961642 6.191897 -2.803449 -1.410845 -2.897268 6.149323 -20.754160 -2.225900 1.722400 -4.299200 176.631820 -86.283868 129.097366 9.407445 -14.560407 0.116452 1.248695 0.213792 5.815612 -7.125000 0.000000 0.000000 81.374091 36.986769 70.870020 -75.793710 55.870140 -45.300493 -0.183457 -0.372256 -29.117743 7.125000 0.000000 0.000000 
-3.487386 16.106856 -1.104723 43.404468 -85.110969 0.596055 -22.461264 -21.472742 -69.174959 8.787240 19.696189 58.618474 -3.430425 16.651285 -17.520980 0.281600 3.413200 9.431300 -4.372570 11.999283 -85.689584 -0.824861 -7.729187 19.591822 -4.348338 -9.171138 39.702916 -0.576200 4.860900 -13.512400 7.074724 -6.108424 5.012761 6.281862 -2.794703 -1.398185 -2.741428 6.224302 -20.919066 -2.175800 1.753400 -4.382900 176.760300 -86.386681 128.089305 9.334503 -14.432519 0.130601 1.250935 0.204656 6.303460 -7.125000 0.000000 0.000000 81.586642 36.961855 70.981656 -75.821366 55.877922 -45.328204 -0.182915 -0.371399 -29.113466 7.125000 0.000000 0.000000 
-3.448093 16.087044 -1.089116 43.412591 -85.409235 0.386937 -22.669121 -21.045041 -69.419229 8.906644 19.755069 58.997844 -3.358351 16.439634 -17.585691 0.296300 3.500400 9.675200 -4.482027 12.020923 -85.856566 -0.916522 -7.990384 20.433428 -4.089592 -8.019632 38.341762 -0.626100 5.063400 -14.089300 7.064668 -6.093683 5.002336 6.341691 -2.795994 -1.345070 -2.926747 6.317650 -21.231583 -2.276500 1.793700 -4.521400 177.221332 -86.495582 127.009971 9.285701 -14.329983 0.147796 1.246219 0.204137 6.676031 -7.125000 0.000000 0.000000 81.771941 36.983495 71.139395 -75.805786 55.875580 -45.321446 -0.175761 -0.369669 -28.996159 7.125000 0.000000 0.000000 
